<mxfile host="app.diagrams.net" agent="Mozilla/5.0 (Windows NT 10.0; Win64; x64) AppleWebKit/537.36 (KHTML, like Gecko) Chrome/131.0.0.0 Safari/537.36" version="25.0.3">
  <diagram name="Страница — 1" id="26g38Lpi_LiVlZbMlhuH">
    <mxGraphModel dx="1434" dy="746" grid="1" gridSize="10" guides="1" tooltips="1" connect="1" arrows="1" fold="1" page="1" pageScale="1" pageWidth="827" pageHeight="1169" math="0" shadow="0">
      <root>
        <mxCell id="0" />
        <mxCell id="1" parent="0" />
        <mxCell id="mzMOUxtRFe1stgDWz0tn-14" style="edgeStyle=orthogonalEdgeStyle;rounded=0;orthogonalLoop=1;jettySize=auto;html=1;" edge="1" parent="1" source="mzMOUxtRFe1stgDWz0tn-15">
          <mxGeometry relative="1" as="geometry">
            <mxPoint x="370" y="90" as="targetPoint" />
          </mxGeometry>
        </mxCell>
        <mxCell id="mzMOUxtRFe1stgDWz0tn-15" value="Начало&lt;div&gt;BubbleSort&lt;/div&gt;" style="rounded=1;whiteSpace=wrap;html=1;" vertex="1" parent="1">
          <mxGeometry x="300" y="10" width="140" height="40" as="geometry" />
        </mxCell>
        <mxCell id="mzMOUxtRFe1stgDWz0tn-16" style="edgeStyle=orthogonalEdgeStyle;rounded=0;orthogonalLoop=1;jettySize=auto;html=1;" edge="1" parent="1" source="mzMOUxtRFe1stgDWz0tn-17">
          <mxGeometry relative="1" as="geometry">
            <mxPoint x="370" y="190" as="targetPoint" />
          </mxGeometry>
        </mxCell>
        <mxCell id="mzMOUxtRFe1stgDWz0tn-17" value="Ввести arr,compare" style="shape=parallelogram;perimeter=parallelogramPerimeter;whiteSpace=wrap;html=1;fixedSize=1;" vertex="1" parent="1">
          <mxGeometry x="290" y="90" width="160" height="60" as="geometry" />
        </mxCell>
        <mxCell id="mzMOUxtRFe1stgDWz0tn-18" style="edgeStyle=orthogonalEdgeStyle;rounded=0;orthogonalLoop=1;jettySize=auto;html=1;" edge="1" parent="1" source="mzMOUxtRFe1stgDWz0tn-19" target="mzMOUxtRFe1stgDWz0tn-21">
          <mxGeometry relative="1" as="geometry">
            <mxPoint x="365" y="280" as="targetPoint" />
          </mxGeometry>
        </mxCell>
        <mxCell id="mzMOUxtRFe1stgDWz0tn-19" value="i = БольшийЭлемент(arr)" style="rounded=0;whiteSpace=wrap;html=1;" vertex="1" parent="1">
          <mxGeometry x="290" y="190" width="150" height="50" as="geometry" />
        </mxCell>
        <mxCell id="mzMOUxtRFe1stgDWz0tn-20" style="edgeStyle=orthogonalEdgeStyle;rounded=0;orthogonalLoop=1;jettySize=auto;html=1;" edge="1" parent="1" source="mzMOUxtRFe1stgDWz0tn-21">
          <mxGeometry relative="1" as="geometry">
            <mxPoint x="365" y="370" as="targetPoint" />
          </mxGeometry>
        </mxCell>
        <mxCell id="mzMOUxtRFe1stgDWz0tn-21" value="Цикл 1&amp;nbsp; (i = 1)" style="shape=loopLimit;whiteSpace=wrap;html=1;" vertex="1" parent="1">
          <mxGeometry x="280" y="270" width="170" height="50" as="geometry" />
        </mxCell>
        <mxCell id="mzMOUxtRFe1stgDWz0tn-22" style="edgeStyle=orthogonalEdgeStyle;rounded=0;orthogonalLoop=1;jettySize=auto;html=1;" edge="1" parent="1" source="mzMOUxtRFe1stgDWz0tn-23" target="mzMOUxtRFe1stgDWz0tn-28">
          <mxGeometry relative="1" as="geometry">
            <mxPoint x="365" y="570" as="targetPoint" />
          </mxGeometry>
        </mxCell>
        <mxCell id="mzMOUxtRFe1stgDWz0tn-23" value="Цикл 2&amp;nbsp; (j = i-1)" style="shape=loopLimit;whiteSpace=wrap;html=1;" vertex="1" parent="1">
          <mxGeometry x="280" y="460" width="170" height="50" as="geometry" />
        </mxCell>
        <mxCell id="mzMOUxtRFe1stgDWz0tn-24" style="edgeStyle=orthogonalEdgeStyle;rounded=0;orthogonalLoop=1;jettySize=auto;html=1;" edge="1" parent="1" source="mzMOUxtRFe1stgDWz0tn-28" target="mzMOUxtRFe1stgDWz0tn-30">
          <mxGeometry relative="1" as="geometry">
            <mxPoint x="370" y="730" as="targetPoint" />
          </mxGeometry>
        </mxCell>
        <mxCell id="mzMOUxtRFe1stgDWz0tn-25" value="True" style="edgeLabel;html=1;align=center;verticalAlign=middle;resizable=0;points=[];" vertex="1" connectable="0" parent="mzMOUxtRFe1stgDWz0tn-24">
          <mxGeometry x="-0.05" y="2" relative="1" as="geometry">
            <mxPoint as="offset" />
          </mxGeometry>
        </mxCell>
        <mxCell id="mzMOUxtRFe1stgDWz0tn-26" style="edgeStyle=orthogonalEdgeStyle;rounded=0;orthogonalLoop=1;jettySize=auto;html=1;" edge="1" parent="1" source="mzMOUxtRFe1stgDWz0tn-28">
          <mxGeometry relative="1" as="geometry">
            <mxPoint x="360" y="810" as="targetPoint" />
            <Array as="points">
              <mxPoint x="521" y="610" />
            </Array>
          </mxGeometry>
        </mxCell>
        <mxCell id="mzMOUxtRFe1stgDWz0tn-27" value="False" style="edgeLabel;html=1;align=center;verticalAlign=middle;resizable=0;points=[];" vertex="1" connectable="0" parent="mzMOUxtRFe1stgDWz0tn-26">
          <mxGeometry x="-0.8657" relative="1" as="geometry">
            <mxPoint as="offset" />
          </mxGeometry>
        </mxCell>
        <mxCell id="mzMOUxtRFe1stgDWz0tn-28" value="compare(arr[j], arr[j + 1])" style="rhombus;whiteSpace=wrap;html=1;" vertex="1" parent="1">
          <mxGeometry x="280" y="560" width="170" height="100" as="geometry" />
        </mxCell>
        <mxCell id="mzMOUxtRFe1stgDWz0tn-29" style="edgeStyle=orthogonalEdgeStyle;rounded=0;orthogonalLoop=1;jettySize=auto;html=1;entryX=0.5;entryY=0;entryDx=0;entryDy=0;" edge="1" parent="1" source="mzMOUxtRFe1stgDWz0tn-30" target="mzMOUxtRFe1stgDWz0tn-37">
          <mxGeometry relative="1" as="geometry" />
        </mxCell>
        <mxCell id="mzMOUxtRFe1stgDWz0tn-30" value="&lt;div&gt;temp = arr[j]&lt;/div&gt;&lt;div&gt;&amp;nbsp; &amp;nbsp; &amp;nbsp; arr[j] = arr[j + 1]&lt;/div&gt;&lt;div&gt;&amp;nbsp; &amp;nbsp; &amp;nbsp; &amp;nbsp;arr[j + 1] = temp&lt;/div&gt;" style="rounded=0;whiteSpace=wrap;html=1;" vertex="1" parent="1">
          <mxGeometry x="280" y="700" width="170" height="80" as="geometry" />
        </mxCell>
        <mxCell id="mzMOUxtRFe1stgDWz0tn-31" style="edgeStyle=orthogonalEdgeStyle;rounded=0;orthogonalLoop=1;jettySize=auto;html=1;" edge="1" parent="1">
          <mxGeometry relative="1" as="geometry">
            <mxPoint x="365" y="960" as="targetPoint" />
            <mxPoint x="365" y="920" as="sourcePoint" />
          </mxGeometry>
        </mxCell>
        <mxCell id="mzMOUxtRFe1stgDWz0tn-32" value="Цикл 2" style="shape=loopLimit;whiteSpace=wrap;html=1;direction=west;" vertex="1" parent="1">
          <mxGeometry x="280" y="890" width="170" height="40" as="geometry" />
        </mxCell>
        <mxCell id="mzMOUxtRFe1stgDWz0tn-33" style="edgeStyle=orthogonalEdgeStyle;rounded=0;orthogonalLoop=1;jettySize=auto;html=1;" edge="1" parent="1" source="mzMOUxtRFe1stgDWz0tn-34" target="mzMOUxtRFe1stgDWz0tn-35">
          <mxGeometry relative="1" as="geometry">
            <mxPoint x="365" y="1120" as="targetPoint" />
          </mxGeometry>
        </mxCell>
        <mxCell id="mzMOUxtRFe1stgDWz0tn-34" value="Цикл 1" style="shape=loopLimit;whiteSpace=wrap;html=1;direction=west;" vertex="1" parent="1">
          <mxGeometry x="280" y="1020" width="170" height="40" as="geometry" />
        </mxCell>
        <mxCell id="mzMOUxtRFe1stgDWz0tn-35" value="Конец&lt;div&gt;BubbleSort&lt;/div&gt;" style="rounded=1;whiteSpace=wrap;html=1;" vertex="1" parent="1">
          <mxGeometry x="285" y="1080" width="160" height="40" as="geometry" />
        </mxCell>
        <mxCell id="mzMOUxtRFe1stgDWz0tn-36" style="edgeStyle=orthogonalEdgeStyle;rounded=0;orthogonalLoop=1;jettySize=auto;html=1;entryX=0.5;entryY=1;entryDx=0;entryDy=0;" edge="1" parent="1" source="mzMOUxtRFe1stgDWz0tn-37" target="mzMOUxtRFe1stgDWz0tn-32">
          <mxGeometry relative="1" as="geometry" />
        </mxCell>
        <mxCell id="mzMOUxtRFe1stgDWz0tn-37" value="j = j-1" style="rounded=0;whiteSpace=wrap;html=1;" vertex="1" parent="1">
          <mxGeometry x="280" y="830" width="170" height="30" as="geometry" />
        </mxCell>
        <mxCell id="mzMOUxtRFe1stgDWz0tn-38" style="edgeStyle=orthogonalEdgeStyle;rounded=0;orthogonalLoop=1;jettySize=auto;html=1;entryX=0.5;entryY=1;entryDx=0;entryDy=0;" edge="1" parent="1" source="mzMOUxtRFe1stgDWz0tn-39" target="mzMOUxtRFe1stgDWz0tn-34">
          <mxGeometry relative="1" as="geometry" />
        </mxCell>
        <mxCell id="mzMOUxtRFe1stgDWz0tn-39" value="i = i-1" style="rounded=0;whiteSpace=wrap;html=1;" vertex="1" parent="1">
          <mxGeometry x="280" y="960" width="170" height="30" as="geometry" />
        </mxCell>
        <mxCell id="mzMOUxtRFe1stgDWz0tn-41" style="edgeStyle=orthogonalEdgeStyle;rounded=0;orthogonalLoop=1;jettySize=auto;html=1;entryX=0.5;entryY=0;entryDx=0;entryDy=0;" edge="1" parent="1" source="mzMOUxtRFe1stgDWz0tn-40" target="mzMOUxtRFe1stgDWz0tn-23">
          <mxGeometry relative="1" as="geometry" />
        </mxCell>
        <mxCell id="mzMOUxtRFe1stgDWz0tn-40" value="j =&amp;nbsp;0" style="rounded=0;whiteSpace=wrap;html=1;" vertex="1" parent="1">
          <mxGeometry x="305" y="370" width="120" height="30" as="geometry" />
        </mxCell>
      </root>
    </mxGraphModel>
  </diagram>
</mxfile>
